<?xml version="1.0" encoding="UTF-8" standalone="no"?>
<!-- Created with Inkscape (http://www.inkscape.org/) -->

<svg
   version="1.1"
   id="svg2"
   width="4000"
   height="1618.0133"
   viewBox="0 0 4000 1618.0133"
   sodipodi:docname="Prasad Solutions Logo.ai"
   xmlns:inkscape="http://www.inkscape.org/namespaces/inkscape"
   xmlns:sodipodi="http://sodipodi.sourceforge.net/DTD/sodipodi-0.dtd"
   xmlns="http://www.w3.org/2000/svg"
   xmlns:svg="http://www.w3.org/2000/svg">
  <defs
     id="defs6">
    <clipPath
       clipPathUnits="userSpaceOnUse"
       id="clipPath16">
      <path
         d="M 0,1213.515 H 3000 V 0 H 0 Z"
         id="path14" />
    </clipPath>
  </defs>
  <sodipodi:namedview
     id="namedview4"
     pagecolor="#ffffff"
     bordercolor="#000000"
     borderopacity="0.25"
     inkscape:showpageshadow="2"
     inkscape:pageopacity="0.0"
     inkscape:pagecheckerboard="0"
     inkscape:deskcolor="#d1d1d1" />
  <g
     id="g8"
     inkscape:groupmode="layer"
     inkscape:label="Prasad Solutions Logo"
     transform="matrix(1.3333333,0,0,-1.3333333,0,1618.0133)">
    <g
       id="g10">
      <g
         id="g12"
         clip-path="url(#clipPath16)">
        <g
           id="g18"
           transform="translate(306.8838,808.8751)">
          <path
             d="m 0,0 c 5.169,0 10.337,0.007 15.506,-0.001 47.639,0 95.279,-0.383 142.918,-0.383 45.059,-0.14 89.085,0.701 133.321,-9.13 39.233,-10.329 68.81,-36.592 85.003,-73.741 24.842,-56.991 17.395,-125.969 -16.714,-177.59 -35.126,-53.16 -99.072,-85.81 -162.964,-79.623 -5.362,0.519 -10.697,1.313 -15.976,2.387 41.709,10.019 46.006,11.644 56.215,17.663 74.351,43.839 91.993,139.059 55.742,214.622 -4.545,9.473 -9.956,18.539 -16.257,26.951 -12.603,16.826 -28.649,30.965 -47.072,41.117 -25.609,14.113 -78.27,33.478 -102.528,7.708 -10.877,-11.554 -9.9,-29.555 -9.526,-44.421 2.891,-114.702 1.94,-229.481 3.38,-344.203 0.169,-13.418 2.457,-26.398 1.236,-39.902 -2.303,-25.446 -55.203,17.503 -63.233,22.749 -41.166,26.892 -81.167,57.149 -115.484,92.485 -0.407,0.42 -0.813,0.841 -1.219,1.263 -34.726,36.06 -65.12,78.062 -80.18,126.293 -0.643,2.06 -1.229,4.141 -1.808,6.22 -7.264,26.043 -9.206,53.164 -7.761,80.096 1.369,25.525 5.194,51.16 14.441,75.105 8.005,20.728 18.726,40.299 30.41,59.157 0.711,1.147 2.252,1.752 6.837,5.158 -1.374,-1.021 -0.933,-11.88 -1.289,-14.003 -0.821,-4.902 -2.876,-9.511 -4.367,-14.24 -15.784,-50.063 -13.426,-104.582 4.018,-153.908 2.763,-7.815 5.905,-15.495 9.416,-23.004 10.482,-22.414 24.242,-43.24 39.414,-62.732 11.991,-15.328 25.39,-29.561 39.054,-43.397 7.509,-7.598 16.198,-15.306 26.309,-19.167 2.566,-0.98 5.535,-1.654 7.984,-0.409 7.411,3.768 7.125,20.562 7.354,27.411 0.36,10.788 -0.551,21.566 -0.481,32.354 0.095,14.486 0.168,28.973 0.201,43.46 0.066,28.975 -0.025,57.95 -0.408,86.923 -0.016,1.159 -0.031,2.318 -0.048,3.477 -0.315,22.413 -0.886,44.865 -1.685,67.268 -0.624,17.491 -3.181,32.839 -17.552,44.552 -2.415,1.966 -4.942,3.79 -7.499,5.566 -1.228,0.853 -2.636,1.618 -3.75,2.615 -0.327,0.292 -2.6,2.215 -2.486,2.564 C -1.019,-3.126 -0.51,-1.563 0,0"
             style="fill:#fc7600;fill-opacity:1;fill-rule:nonzero;stroke:none"
             id="path20" />
        </g>
        <g
           id="g22"
           transform="translate(476.4055,272.4236)">
          <path
             d="m 0,0 c 4.994,-2.186 10.093,-4.096 15.187,-6.053 0.409,-0.157 0.842,-0.332 1.098,-0.688 0.42,-0.585 0.202,-1.394 -0.049,-2.069 -0.812,-2.181 -1.805,-4.294 -2.966,-6.311 -7.924,3.57 -15.959,6.895 -24.089,9.97 -4.065,1.537 -8.153,3.012 -12.264,4.423 -2.166,0.744 -9.074,4.377 -11.108,2.763 -0.663,-0.527 -1.018,-2.263 -1.294,-3.017 -1.291,-3.525 -2.308,-7.16 -3.321,-10.772 -1.177,-4.197 -2.559,-8.478 -3.292,-12.783 -1.679,-9.857 -1.643,-20.061 0.891,-29.772 3.671,-14.065 13.128,-27.092 26.484,-33.293 13.724,-6.371 32.675,-2.486 44.969,-11.569 -17.475,-3.42 -37.837,-1.46 -55.672,-1.71 -19.26,-0.271 -38.523,-0.304 -57.784,-0.182 -38.496,0.245 -76.984,1.114 -115.478,1.978 -2.037,0.051 -4.208,0.042 -5.776,1.09 5.189,5.807 14.516,4.533 21.472,5.37 8.744,1.052 16.644,3.813 22.704,10.483 7.39,8.132 11.669,19.078 13.619,29.774 4.372,23.975 6.024,48.708 5.462,73.062 -0.267,11.559 -2.554,23.297 -8.661,33.264 -6.835,11.156 -17.982,18.153 -28.643,25.233 -72.499,48.149 -141.757,107.812 -185.394,184.171 -56.675,99.182 -59.8,227.736 1.398,325.768 34.149,54.702 85.435,96.951 140.88,129.88 74.861,44.461 158.824,73.521 245.152,84.848 -72.74,-21.069 -144.175,-48.467 -208.466,-88.489 -107.625,-66.998 -204.775,-182.361 -194.685,-316.441 9.99,-132.749 106.107,-243.245 216.584,-309.136 23.724,-14.149 47.987,-27.366 72.268,-40.53"
             style="fill:#19469d;fill-opacity:1;fill-rule:nonzero;stroke:none"
             id="path24" />
        </g>
        <g
           id="g26"
           transform="translate(411.3904,115.76)">
          <path
             d="m 0,0 c 117.903,42.408 170.881,59.135 260.679,122.101 108.671,76.199 184.168,206.917 156.135,342.672 -18.491,89.55 -73.536,170.124 -144.906,226.246 -4.297,3.379 -8.549,6.788 -12.952,10.038 -21.649,15.98 -44.766,29.948 -68.844,41.949 -23.791,11.859 -49.323,19.27 -74.944,26.028 -48.451,12.78 -97.724,21.995 -146.286,34.41 -5.592,1.43 -10.934,3.44 -16.343,5.493 9.654,-1.835 20.047,-1.645 29.82,-2.476 20.867,-1.773 41.708,-3.915 62.468,-6.685 52.947,-7.067 105.931,-18.858 154.482,-41.699 C 322.04,700.338 431.717,594.333 460.723,457.739 484.562,345.478 441.023,230.914 354.507,156.426 261.25,76.134 138.709,33.524 20.971,4.66"
             style="fill:#fc7600;fill-opacity:1;fill-rule:nonzero;stroke:none"
             id="path28" />
        </g>
        <g
           id="g30"
           transform="translate(476.4146,272.4444)">
          <path
             d="m 0,0 c 8.738,-3.67 10.922,-4.456 17.024,-6.679 -2.519,-5.991 -0.962,-2.349 -3.568,-8.35"
             style="fill:#000000;fill-opacity:1;fill-rule:nonzero;stroke:none"
             id="path32" />
        </g>
      </g>
    </g>
    <text
       xml:space="preserve"
       transform="matrix(1,0,0,-1,902.1528,507.2686)"
       style="font-variant:normal;font-weight:normal;font-stretch:normal;font-size:520.975px;font-family:AvertaStd-Bold;-inkscape-font-specification:AvertaStd-Bold;writing-mode:lr-tb;fill:#19469d;fill-opacity:1;fill-rule:nonzero;stroke:none"
       id="text36"><tspan
         x="0 325.08859 667.36938 1029.4471 1327.9661 1691.6068"
         y="0"
         sodipodi:role="line"
         id="tspan34">PRASAD</tspan></text>
    <text
       xml:space="preserve"
       transform="matrix(1,0,0,-1,902.1533,188.415)"
       style="font-variant:normal;font-weight:normal;font-stretch:normal;font-size:277.904px;font-family:AvertaStd-Bold;-inkscape-font-specification:AvertaStd-Bold;writing-mode:lr-tb;fill:#19469d;fill-opacity:1;fill-rule:nonzero;stroke:none"
       id="text40"><tspan
         x="0 216.7652 499.39368 706.43225 959.04706 1177.7576 1317.5433 1600.1718 1864.4586"
         y="0"
         sodipodi:role="line"
         id="tspan38">SOLUTIONS</tspan></text>
  </g>
</svg>
